<svg width="143" height="55" viewBox="0 0 143 55" fill="none" xmlns="http://www.w3.org/2000/svg">
<rect x="0.114648" y="0.1" width="142.14" height="54.8" rx="14.9" fill="#F9F8FD"/>
<path d="M32.0028 28.2949C32.0277 26.365 33.0641 24.539 34.7083 23.5281C33.671 22.0468 31.9337 21.1075 30.1262 21.051C28.1983 20.8486 26.3294 22.2046 25.3469 22.2046C24.3455 22.2046 22.833 21.0711 21.2042 21.1046C19.0811 21.1732 17.1019 22.3802 16.069 24.2363C13.8487 28.0805 15.5048 33.7302 17.6318 36.8375C18.6959 38.3591 19.9396 40.0588 21.5669 39.9985C23.1593 39.9324 23.754 38.983 25.6762 38.983C27.5806 38.983 28.1386 39.9985 29.7989 39.9602C31.5076 39.9324 32.5842 38.4318 33.611 36.8958C34.3756 35.8116 34.964 34.6134 35.3543 33.3454C33.3462 32.4961 32.0052 30.4753 32.0028 28.2949Z" fill="black"/>
<path d="M28.8667 19.0074C29.7984 17.889 30.2574 16.4514 30.1462 15C28.7228 15.1495 27.408 15.8298 26.4638 16.9053C25.5404 17.9562 25.0599 19.3685 25.1507 20.7644C26.5746 20.7791 27.9744 20.1172 28.8667 19.0074Z" fill="black"/>
<path d="M45.2045 22H43.1645V14.82H45.2045C47.5045 14.82 48.7745 16.28 48.7745 18.38C48.7745 20.45 47.4545 22 45.2045 22ZM43.9145 15.47V21.35H45.1845C47.0045 21.35 48.0145 20.16 48.0145 18.38C48.0145 16.61 47.0245 15.47 45.1845 15.47H43.9145ZM52.0409 22.1C50.5909 22.1 49.5409 20.95 49.5409 19.36C49.5409 17.78 50.5909 16.64 52.0409 16.64C53.5009 16.64 54.5509 17.78 54.5509 19.36C54.5509 20.95 53.5009 22.1 52.0409 22.1ZM52.0409 21.49C53.0709 21.49 53.8409 20.67 53.8409 19.36C53.8409 18.07 53.0709 17.25 52.0409 17.25C51.0209 17.25 50.2509 18.07 50.2509 19.36C50.2509 20.67 51.0209 21.49 52.0409 21.49ZM59.9654 22L58.5854 17.66L57.2154 22H56.5054L54.9654 16.73H55.6554L56.8754 21.01L58.2454 16.73H58.9354L60.2954 21.02L61.5154 16.73H62.2154L60.6654 22H59.9654ZM63.8243 18.93V22H63.1243V16.73H63.7743V17.72C64.1143 17.07 64.7543 16.63 65.5143 16.63C66.6143 16.63 67.3243 17.33 67.3243 18.58V22H66.6243V18.82C66.6243 17.81 66.1643 17.24 65.3043 17.24C64.4843 17.24 63.8243 17.95 63.8243 18.93ZM69.4981 22H68.7981V14.82H69.4981V22ZM73.1249 22.1C71.6749 22.1 70.6249 20.95 70.6249 19.36C70.6249 17.78 71.6749 16.64 73.1249 16.64C74.5849 16.64 75.6349 17.78 75.6349 19.36C75.6349 20.95 74.5849 22.1 73.1249 22.1ZM73.1249 21.49C74.1549 21.49 74.9249 20.67 74.9249 19.36C74.9249 18.07 74.1549 17.25 73.1249 17.25C72.1049 17.25 71.3349 18.07 71.3349 19.36C71.3349 20.67 72.1049 21.49 73.1249 21.49ZM80.0068 22V21.04C79.6968 21.7 79.0568 22.1 78.2368 22.1C77.1468 22.1 76.4368 21.49 76.4368 20.54C76.4368 19.51 77.2568 18.97 78.8568 18.97C79.1768 18.97 79.4168 18.99 79.9368 19.03V18.59C79.9368 17.71 79.4668 17.19 78.6668 17.19C77.8068 17.19 77.2668 17.72 77.2568 18.58H76.6168C76.6468 17.41 77.4568 16.63 78.6568 16.63C79.8868 16.63 80.6068 17.35 80.6068 18.57V22H80.0068ZM77.1068 20.52C77.1068 21.16 77.5968 21.59 78.3368 21.59C79.3168 21.59 79.9368 20.95 79.9368 19.96V19.49C79.4868 19.45 79.1768 19.44 78.8868 19.44C77.6868 19.44 77.1068 19.79 77.1068 20.52ZM81.6893 19.36C81.6893 17.74 82.5893 16.63 84.0093 16.63C84.7993 16.63 85.4693 17.08 85.8193 17.83V14.82H86.5193V22H85.8693V20.89C85.4993 21.66 84.8193 22.1 84.0093 22.1C82.5893 22.1 81.6893 20.98 81.6893 19.36ZM82.3993 19.36C82.3993 20.7 83.0793 21.49 84.1093 21.49C85.1293 21.49 85.8293 20.66 85.8293 19.34C85.8293 18.01 85.1093 17.24 84.1093 17.24C83.0793 17.24 82.3993 18.02 82.3993 19.36ZM92.2362 22.1C90.7862 22.1 89.7362 20.95 89.7362 19.36C89.7362 17.78 90.7862 16.64 92.2362 16.64C93.6962 16.64 94.7462 17.78 94.7462 19.36C94.7462 20.95 93.6962 22.1 92.2362 22.1ZM92.2362 21.49C93.2662 21.49 94.0362 20.67 94.0362 19.36C94.0362 18.07 93.2662 17.25 92.2362 17.25C91.2162 17.25 90.4462 18.07 90.4462 19.36C90.4462 20.67 91.2162 21.49 92.2362 21.49ZM96.5782 18.93V22H95.8782V16.73H96.5282V17.72C96.8682 17.07 97.5082 16.63 98.2682 16.63C99.3682 16.63 100.078 17.33 100.078 18.58V22H99.3782V18.82C99.3782 17.81 98.9182 17.24 98.0582 17.24C97.2382 17.24 96.5782 17.95 96.5782 18.93ZM106.352 21.33V21.95C106.082 22.06 105.852 22.1 105.592 22.1C104.722 22.1 104.052 21.65 104.052 20.51V17.32H102.812V16.73H104.052V15.17H104.752V16.73H106.402V17.32H104.752V20.36C104.752 21.18 105.152 21.46 105.732 21.46C105.952 21.46 106.132 21.42 106.352 21.33ZM108.16 18.93V22H107.46V14.82H108.16V17.7C108.49 17.07 109.09 16.63 109.85 16.63C110.95 16.63 111.66 17.33 111.66 18.58V22H110.96V18.82C110.96 17.81 110.5 17.24 109.64 17.24C108.82 17.24 108.16 17.95 108.16 18.93ZM115.204 22.1C113.724 22.1 112.744 20.99 112.744 19.32C112.744 17.78 113.764 16.63 115.164 16.63C116.664 16.63 117.644 17.84 117.524 19.53H113.444C113.504 20.78 114.164 21.55 115.194 21.55C116.074 21.55 116.684 21.06 116.854 20.22H117.544C117.304 21.39 116.414 22.1 115.204 22.1ZM115.154 17.17C114.204 17.17 113.534 17.9 113.444 19.05H116.794C116.734 17.87 116.124 17.17 115.154 17.17Z" fill="black"/>
<path d="M52.6505 40L51.4805 36.796H45.9005L44.7125 40H42.7145L47.6645 27.076H49.8425L54.7565 40H52.6505ZM48.7085 29.236L46.4945 35.194H50.8865L48.7085 29.236ZM65.5018 35.23C65.5018 38.11 63.8458 40.18 61.2898 40.18C59.9938 40.18 58.8958 39.532 58.2118 38.38V43.474H56.3938V30.46H58.0858V32.206C58.7698 30.982 59.9398 30.28 61.2898 30.28C63.8278 30.28 65.5018 32.35 65.5018 35.23ZM63.6118 35.23C63.6118 33.088 62.4778 31.882 60.9118 31.882C59.3998 31.882 58.2118 33.088 58.2118 35.23C58.2118 37.336 59.3818 38.56 60.9118 38.56C62.4778 38.56 63.6118 37.372 63.6118 35.23ZM76.453 35.23C76.453 38.11 74.797 40.18 72.241 40.18C70.945 40.18 69.847 39.532 69.163 38.38V43.474H67.345V30.46H69.037V32.206C69.721 30.982 70.891 30.28 72.241 30.28C74.779 30.28 76.453 32.35 76.453 35.23ZM74.563 35.23C74.563 33.088 73.429 31.882 71.863 31.882C70.351 31.882 69.163 33.088 69.163 35.23C69.163 37.336 70.333 38.56 71.863 38.56C73.429 38.56 74.563 37.372 74.563 35.23ZM91.6519 36.22C91.6519 38.47 89.8519 40.18 86.7199 40.18C83.6059 40.18 81.7159 38.47 81.5539 35.896H83.5699C83.6599 37.534 84.7039 38.596 86.6839 38.596C88.3219 38.596 89.5459 37.822 89.5459 36.49C89.5459 35.41 88.8439 34.87 87.3499 34.546L85.4779 34.186C83.6599 33.826 82.0039 32.908 82.0039 30.712C82.0039 28.534 83.9119 26.896 86.5939 26.896C89.2759 26.896 91.3099 28.534 91.4719 31.108H89.4559C89.3479 29.56 88.2319 28.48 86.6119 28.48C84.9379 28.48 84.0199 29.47 84.0199 30.586C84.0199 31.81 85.0819 32.242 86.2879 32.494L88.1959 32.872C90.4099 33.322 91.6519 34.294 91.6519 36.22ZM99.2172 38.236V39.838C98.6592 40.09 98.1732 40.18 97.5972 40.18C95.8332 40.18 94.6092 39.226 94.6092 37.12V32.008H92.5032V30.46H94.6092V27.634H96.4272V30.46H99.3072V32.008H96.4272V36.706C96.4272 38.02 97.0572 38.488 98.0292 38.488C98.4612 38.488 98.8392 38.416 99.2172 38.236ZM104.775 40.18C102.075 40.18 100.095 38.056 100.095 35.23C100.095 32.404 102.075 30.28 104.775 30.28C107.475 30.28 109.455 32.404 109.455 35.23C109.455 38.056 107.475 40.18 104.775 40.18ZM104.775 38.578C106.341 38.578 107.583 37.318 107.583 35.23C107.583 33.142 106.341 31.9 104.775 31.9C103.209 31.9 101.985 33.142 101.985 35.23C101.985 37.318 103.209 38.578 104.775 38.578ZM113.126 35.122V40H111.308V30.46H113V32.476C113.666 31.162 115.106 30.334 116.672 30.334V32.224C114.62 32.116 113.126 33.016 113.126 35.122ZM121.999 40.18C119.245 40.18 117.391 38.182 117.391 35.176C117.391 32.35 119.317 30.28 121.945 30.28C124.789 30.28 126.679 32.584 126.355 35.68H119.245C119.389 37.624 120.361 38.758 121.963 38.758C123.313 38.758 124.249 38.02 124.555 36.778H126.355C125.887 38.902 124.249 40.18 121.999 40.18ZM121.909 31.648C120.451 31.648 119.461 32.692 119.263 34.474H124.429C124.339 32.71 123.385 31.648 121.909 31.648Z" fill="black"/>
<rect x="0.114648" y="0.1" width="142.14" height="54.8" rx="14.9" stroke="#695ACD" stroke-width="0.2"/>
</svg>
