<svg width="158" height="55" viewBox="0 0 158 55" fill="none" xmlns="http://www.w3.org/2000/svg">
<rect x="0.746484" y="0.1" width="156.168" height="54.8" rx="14.9" fill="#F9F8FD"/>
<path d="M26.0904 26.9394L15.7422 37.9228C15.7426 37.925 15.7434 37.927 15.7437 37.9292C16.0611 39.1218 17.1504 40 18.4432 40C18.96 40 19.4452 39.8603 19.8613 39.615L19.8944 39.5956L31.5426 32.8742L26.0904 26.9394Z" fill="#EA4335"/>
<path d="M36.5588 25.0691L36.5489 25.0623L31.5201 22.1471L25.8545 27.1885L31.5398 32.873L36.5421 29.9868C37.4191 29.5133 38.0144 28.5888 38.0144 27.5226C38.0144 26.4641 37.4271 25.5441 36.5588 25.0691Z" fill="#FBBC04"/>
<path d="M15.7414 17.0759C15.6792 17.3053 15.6465 17.5456 15.6465 17.7951V37.2032C15.6465 37.4522 15.6788 37.6933 15.7418 37.9219L26.4461 27.2195L15.7414 17.0759Z" fill="#4285F4"/>
<path d="M26.1661 27.5L31.5223 22.1454L19.8873 15.3996C19.4644 15.1463 18.9708 15.0001 18.4426 15.0001C17.1498 15.0001 16.059 15.8799 15.7416 17.074C15.7412 17.0751 15.7412 17.0759 15.7412 17.077L26.1661 27.5Z" fill="#34A853"/>
<path d="M47.0446 22.15C44.9846 22.15 43.4146 20.57 43.4146 18.41C43.4146 16.29 44.9146 14.67 46.9946 14.67C48.8646 14.67 50.0846 15.84 50.4946 17.28H49.6446C49.3346 16.19 48.4246 15.34 46.9746 15.34C45.3246 15.34 44.1846 16.61 44.1846 18.42C44.1846 20.19 45.3346 21.5 47.0646 21.5C48.6246 21.5 49.6146 20.53 49.8046 19.02H46.9846V18.41H50.5846C50.5646 20.68 49.1646 22.15 47.0446 22.15ZM56.1034 21.35V22H51.7934V14.82H56.0334V15.47H52.5434V17.97H55.7334V18.62H52.5434V21.35H56.1034ZM60.0365 22H59.2965V15.49H56.8865V14.82H62.4465V15.49H60.0365V22ZM66.2934 22H65.5434V14.82H66.2934V22ZM70.4564 22H69.7164V15.49H67.3064V14.82H72.8664V15.49H70.4564V22ZM79.1733 22.15C77.0933 22.15 75.5533 20.49 75.5533 18.4C75.5533 16.31 77.0933 14.67 79.1733 14.67C81.2533 14.67 82.8033 16.31 82.8033 18.4C82.8033 20.49 81.2533 22.15 79.1733 22.15ZM79.1733 21.48C80.8733 21.48 82.0233 20.12 82.0233 18.4C82.0233 16.68 80.8733 15.34 79.1733 15.34C77.4833 15.34 76.3233 16.68 76.3233 18.4C76.3233 20.12 77.4833 21.48 79.1733 21.48ZM88.8904 22L84.7004 15.88V22H84.0004V14.82H84.8304L88.9804 20.86V14.82H89.6904V22H88.8904Z" fill="black"/>
<path d="M50.2686 40.27C46.5426 40.27 43.6626 37.444 43.6626 33.52C43.6626 29.704 46.3986 26.806 50.1606 26.806C53.4906 26.806 55.7406 28.84 56.5326 31.522H54.2286C53.7426 29.866 52.3206 28.588 50.1066 28.588C47.5506 28.588 45.7146 30.514 45.7146 33.556C45.7146 36.418 47.4606 38.578 50.3406 38.578C52.7346 38.578 54.2466 37.102 54.6066 34.888H50.1426V33.304H56.6946C56.7666 37.444 54.2286 40.27 50.2686 40.27ZM62.6144 40.18C59.9144 40.18 57.9344 38.056 57.9344 35.23C57.9344 32.404 59.9144 30.28 62.6144 30.28C65.3144 30.28 67.2944 32.404 67.2944 35.23C67.2944 38.056 65.3144 40.18 62.6144 40.18ZM62.6144 38.578C64.1804 38.578 65.4224 37.318 65.4224 35.23C65.4224 33.142 64.1804 31.9 62.6144 31.9C61.0484 31.9 59.8244 33.142 59.8244 35.23C59.8244 37.318 61.0484 38.578 62.6144 38.578ZM73.1437 40.18C70.4437 40.18 68.4637 38.056 68.4637 35.23C68.4637 32.404 70.4437 30.28 73.1437 30.28C75.8437 30.28 77.8237 32.404 77.8237 35.23C77.8237 38.056 75.8437 40.18 73.1437 40.18ZM73.1437 38.578C74.7097 38.578 75.9517 37.318 75.9517 35.23C75.9517 33.142 74.7097 31.9 73.1437 31.9C71.5777 31.9 70.3537 33.142 70.3537 35.23C70.3537 37.318 71.5777 38.578 73.1437 38.578ZM83.3172 43.672C80.8152 43.672 79.1952 42.34 79.0872 40.18H80.8512C80.9592 41.512 81.8232 42.232 83.2992 42.232C84.9372 42.232 85.8012 41.35 85.8012 39.712V37.984C85.2612 39.136 84.1812 39.802 82.8852 39.802C80.5092 39.802 78.8172 37.84 78.8172 35.032C78.8172 32.188 80.4372 30.28 82.8312 30.28C84.1992 30.28 85.2792 30.946 85.9272 32.152V30.46H87.6192V39.676C87.6192 42.178 86.0172 43.672 83.3172 43.672ZM80.6532 35.032C80.6532 37.012 81.6252 38.218 83.2092 38.218C84.7572 38.218 85.8012 36.976 85.8012 35.086C85.8012 33.106 84.7752 31.846 83.2092 31.846C81.6432 31.846 80.6532 33.07 80.6532 35.032ZM91.972 40H90.136V27.076H91.972V40ZM98.4194 40.18C95.6654 40.18 93.8114 38.182 93.8114 35.176C93.8114 32.35 95.7374 30.28 98.3654 30.28C101.209 30.28 103.099 32.584 102.775 35.68H95.6654C95.8094 37.624 96.7814 38.758 98.3834 38.758C99.7334 38.758 100.669 38.02 100.975 36.778H102.775C102.307 38.902 100.669 40.18 98.4194 40.18ZM98.3294 31.648C96.8714 31.648 95.8814 32.692 95.6834 34.474H100.849C100.759 32.71 99.8054 31.648 98.3294 31.648ZM113.096 35.5H110.594V40H108.614V27.076H113.096C115.994 27.076 117.866 28.552 117.866 31.252C117.866 33.97 115.994 35.5 113.096 35.5ZM113.078 28.75H110.594V33.826H113.078C114.824 33.826 115.886 32.872 115.886 31.27C115.886 29.668 114.824 28.75 113.078 28.75ZM121.538 40H119.702V27.076H121.538V40ZM129.84 40V38.524C129.246 39.586 128.184 40.18 126.78 40.18C124.8 40.18 123.504 39.046 123.504 37.3C123.504 35.428 124.998 34.456 127.842 34.456C128.4 34.456 128.85 34.474 129.624 34.564V33.862C129.624 32.494 128.886 31.72 127.626 31.72C126.294 31.72 125.484 32.512 125.43 33.844H123.774C123.864 31.702 125.394 30.28 127.626 30.28C129.984 30.28 131.352 31.612 131.352 33.88V40H129.84ZM125.232 37.246C125.232 38.236 125.97 38.884 127.14 38.884C128.67 38.884 129.624 37.93 129.624 36.472V35.698C128.922 35.608 128.418 35.59 127.95 35.59C126.132 35.59 125.232 36.13 125.232 37.246ZM141.404 30.46L136.634 43.474H134.654L136.022 39.874L132.26 30.46H134.222L136.994 37.732L139.568 30.46H141.404Z" fill="black"/>
<rect x="0.746484" y="0.1" width="156.168" height="54.8" rx="14.9" stroke="#695ACD" stroke-width="0.2"/>
</svg>
