<svg width="24" height="24" viewBox="0 0 24 24" fill="none" xmlns="http://www.w3.org/2000/svg">
<path d="M12.0029 -0.00195312C5.37293 -0.00195312 0 5.37262 0 12.001C0 18.6294 5.37293 24.0023 12.0029 24.0023C18.633 24.0023 24.001 18.6277 24.001 12.001C24.001 5.37426 18.628 -0.00195312 12.0029 -0.00195312ZM13.1862 6.47051C13.2469 6.38025 13.3109 6.29656 13.4159 6.29656H16.7457C16.9229 6.29656 17.0444 6.48364 16.9672 6.64119C15.9104 8.8304 13.7523 9.35719 11.3071 9.79865C11.1168 9.83311 10.9805 9.61812 11.0954 9.46222C11.7043 8.63183 12.451 7.5684 13.1845 6.47051H13.1862ZM16.9672 18.2174H13.7015C13.6178 18.2174 13.5374 18.1731 13.4947 18.1026L9.84983 11.4151C9.73988 11.2379 9.47238 11.2707 9.41002 11.4709L8.48608 14.4068C8.4549 14.5069 8.35972 14.5775 8.25633 14.5775H7.5441C7.40953 14.5775 7.30122 14.4676 7.30122 14.3346V6.53944C7.30122 6.40487 7.41117 6.29656 7.5441 6.29656H10.5407C10.7016 6.29656 10.8181 6.45246 10.7754 6.60672L9.66931 10.5667C9.59054 10.7685 9.88922 10.995 10.0435 10.8342C10.1534 10.693 10.2585 10.5585 10.3586 10.4288C10.4587 10.2992 10.6458 10.2975 10.7508 10.419L17.133 17.7957C17.2938 17.945 17.1888 18.2191 16.9656 18.2191L16.9672 18.2174Z" fill="#034A78"/>
</svg>
