<svg width="118" height="40" viewBox="0 0 118 40" fill="none" xmlns="http://www.w3.org/2000/svg">
<path d="M23.8569 7.12573L21.0167 1.91999C20.8693 1.64979 20.6625 1.41663 20.4118 1.23816C20.1611 1.05969 19.8731 0.940579 19.5696 0.889843C19.2661 0.839107 18.955 0.858074 18.6599 0.945308C18.3648 1.03254 18.0934 1.18576 17.8662 1.39336L4.64415 13.4725C4.55531 13.5536 4.49308 13.6597 4.46563 13.7768C4.43818 13.8939 4.44678 14.0166 4.49032 14.1287C4.53386 14.2408 4.6103 14.3372 4.70958 14.4051C4.80887 14.473 4.92637 14.5092 5.04665 14.5091H6.80798C10.0401 14.5091 11.8892 18.1955 9.95689 20.7863L0.157599 33.9171C-0.368985 34.6223 0.526812 35.5061 1.22438 34.9765L21.2058 19.6468C23.0687 18.2192 24.3599 16.1726 24.846 13.8764C25.3322 11.5802 24.9814 9.18587 23.8569 7.12573Z" fill="#695ACD"/>
<path d="M31.4856 34.9588C30.4514 34.9588 29.5381 34.7842 28.7457 34.435C27.9533 34.0724 27.3288 33.562 26.8722 32.9039C26.4155 32.2324 26.1805 31.4198 26.1671 30.4663H28.8867C28.9136 31.1244 29.1486 31.6817 29.5918 32.1384C30.0485 32.5816 30.673 32.8032 31.4654 32.8032C32.1504 32.8032 32.6943 32.642 33.0972 32.3197C33.5001 31.9839 33.7016 31.5407 33.7016 30.9901C33.7016 30.4125 33.5203 29.9626 33.1577 29.6403C32.8085 29.318 32.3384 29.0561 31.7475 28.8546C31.1565 28.6531 30.5253 28.4382 29.8537 28.2099C28.7659 27.8339 27.9332 27.3504 27.3557 26.7594C26.7916 26.1685 26.5095 25.3828 26.5095 24.4024C26.4961 23.5697 26.6908 22.8578 27.0938 22.2669C27.5101 21.6625 28.0742 21.1992 28.786 20.8768C29.4978 20.5411 30.3171 20.3732 31.2438 20.3732C32.1839 20.3732 33.0099 20.5411 33.7217 20.8768C34.447 21.2126 35.0111 21.6827 35.414 22.287C35.8304 22.8914 36.052 23.61 36.0788 24.4427H33.3188C33.3054 23.9457 33.1107 23.5092 32.7346 23.1332C32.372 22.7437 31.8616 22.5489 31.2035 22.5489C30.6394 22.5355 30.1626 22.6765 29.7732 22.972C29.3971 23.254 29.2091 23.6704 29.2091 24.221C29.2091 24.6911 29.3568 25.0672 29.6523 25.3492C29.9478 25.6178 30.3507 25.8461 30.861 26.0342C31.3714 26.2222 31.9556 26.4237 32.6137 26.6386C33.3121 26.8803 33.9501 27.1623 34.5276 27.4847C35.1051 27.807 35.5685 28.2368 35.9176 28.774C36.2668 29.2978 36.4414 29.976 36.4414 30.8087C36.4414 31.5474 36.2534 32.2324 35.8774 32.8636C35.5013 33.4949 34.9439 34.0052 34.2053 34.3947C33.4666 34.7708 32.56 34.9588 31.4856 34.9588ZM38.6309 34.717V24.7247H40.9074L41.129 26.0745C41.4513 25.591 41.8744 25.2082 42.3982 24.9262C42.9354 24.6307 43.5532 24.4829 44.2516 24.4829C45.7961 24.4829 46.8907 25.0806 47.5354 26.2759C47.898 25.7253 48.3815 25.2888 48.9859 24.9664C49.6037 24.6441 50.2752 24.4829 51.0004 24.4829C52.3032 24.4829 53.3038 24.8724 54.0022 25.6514C54.7006 26.4304 55.0498 27.572 55.0498 29.0762V34.717H52.4711V29.318C52.4711 28.4584 52.3032 27.8003 51.9674 27.3437C51.6451 26.887 51.1415 26.6587 50.4565 26.6587C49.7581 26.6587 49.194 26.9139 48.7643 27.4242C48.3479 27.9346 48.1397 28.6464 48.1397 29.5597V34.717H45.5611V29.318C45.5611 28.4584 45.3932 27.8003 45.0574 27.3437C44.7216 26.887 44.2046 26.6587 43.5062 26.6587C42.8212 26.6587 42.2639 26.9139 41.8341 27.4242C41.4177 27.9346 41.2096 28.6464 41.2096 29.5597V34.717H38.6309ZM62.3531 34.9588C61.3458 34.9588 60.4527 34.7439 59.6737 34.3141C58.8947 33.8843 58.2836 33.28 57.8404 32.501C57.3972 31.722 57.1756 30.8222 57.1756 29.8015C57.1756 28.7673 57.3905 27.8473 57.8203 27.0415C58.2635 26.2356 58.8679 25.6111 59.6334 25.1679C60.4124 24.7113 61.3257 24.4829 62.3733 24.4829C63.3537 24.4829 64.22 24.6978 64.9721 25.1276C65.7242 25.5574 66.3084 26.1483 66.7248 26.9004C67.1545 27.6391 67.3694 28.4651 67.3694 29.3784C67.3694 29.5261 67.3627 29.6806 67.3493 29.8417C67.3493 30.0029 67.3426 30.1708 67.3291 30.3454H59.7341C59.7879 31.1244 60.0565 31.7355 60.54 32.1787C61.0369 32.6219 61.6346 32.8435 62.333 32.8435C62.8568 32.8435 63.2932 32.7293 63.6424 32.501C64.0051 32.2592 64.2737 31.9503 64.4483 31.5743H67.0672C66.8792 32.2055 66.5636 32.783 66.1204 33.3068C65.6906 33.8172 65.1534 34.2201 64.5087 34.5156C63.8775 34.8111 63.1589 34.9588 62.3531 34.9588ZM62.3733 26.5781C61.742 26.5781 61.1846 26.7594 60.7011 27.1221C60.2176 27.4712 59.9087 28.0085 59.7744 28.7337H64.7505C64.7102 28.0756 64.4684 27.5518 64.0252 27.1623C63.582 26.7729 63.0313 26.5781 62.3733 26.5781ZM69.5382 34.717V24.7247H71.8349L72.0766 26.5983C72.4393 25.9536 72.9295 25.4432 73.5473 25.0672C74.1785 24.6777 74.9172 24.4829 75.7633 24.4829V27.2026H75.0381C74.474 27.2026 73.9703 27.2899 73.5271 27.4645C73.0839 27.6391 72.7347 27.9413 72.4795 28.3711C72.2378 28.8009 72.1169 29.3985 72.1169 30.1641V34.717H69.5382ZM77.5258 39.1491V24.7247H79.8224L80.1044 26.1551C80.4268 25.7118 80.8498 25.3224 81.3736 24.9866C81.9108 24.6508 82.6025 24.4829 83.4486 24.4829C84.3888 24.4829 85.2282 24.7113 85.9669 25.1679C86.7056 25.6245 87.2898 26.2491 87.7196 27.0415C88.1493 27.8339 88.3642 28.7337 88.3642 29.741C88.3642 30.7483 88.1493 31.6482 87.7196 32.4406C87.2898 33.2195 86.7056 33.8373 85.9669 34.294C85.2282 34.7372 84.3888 34.9588 83.4486 34.9588C82.6965 34.9588 82.0384 34.8178 81.4744 34.5357C80.9103 34.2537 80.4536 33.8575 80.1044 33.3471V39.1491H77.5258ZM82.9047 32.7025C83.724 32.7025 84.4022 32.4271 84.9394 31.8765C85.4767 31.3258 85.7453 30.614 85.7453 29.741C85.7453 28.868 85.4767 28.1495 84.9394 27.5854C84.4022 27.0213 83.724 26.7393 82.9047 26.7393C82.072 26.7393 81.3871 27.0213 80.8498 27.5854C80.326 28.1361 80.0641 28.8479 80.0641 29.7209C80.0641 30.5939 80.326 31.3124 80.8498 31.8765C81.3871 32.4271 82.072 32.7025 82.9047 32.7025ZM96.8929 34.9588C95.5632 34.9588 94.4015 34.6566 93.4076 34.0522C92.4138 33.4479 91.6415 32.6084 91.0909 31.534C90.5402 30.4461 90.2649 29.1836 90.2649 27.7466C90.2649 26.2961 90.5469 25.0202 91.111 23.9189C91.6885 22.8041 92.5011 21.9379 93.5486 21.32C94.6097 20.6888 95.8654 20.3732 97.3159 20.3732C98.9679 20.3732 100.338 20.7694 101.426 21.5618C102.514 22.3542 103.219 23.4488 103.541 24.8456H100.66C100.445 24.1875 100.056 23.6771 99.4917 23.3145C98.9276 22.9384 98.2023 22.7504 97.3159 22.7504C95.9057 22.7504 94.8178 23.2003 94.0523 24.1002C93.2867 24.9866 92.904 26.2088 92.904 27.7667C92.904 29.3247 93.28 30.5334 94.0321 31.393C94.7977 32.2391 95.8318 32.6622 97.1346 32.6622C98.4105 32.6622 99.3708 32.3197 100.015 31.6347C100.674 30.9363 101.07 30.0231 101.204 28.8949H97.6383V26.9609H103.803V34.717H101.426L101.224 32.8636C100.768 33.5352 100.197 34.0522 99.5118 34.4149C98.8269 34.7775 97.9539 34.9588 96.8929 34.9588ZM111.044 34.9588C110.077 34.9588 109.204 34.7372 108.425 34.294C107.66 33.8508 107.048 33.2397 106.592 32.4607C106.149 31.6683 105.927 30.755 105.927 29.7209C105.927 28.6867 106.155 27.7802 106.612 27.0012C107.069 26.2088 107.68 25.591 108.445 25.1478C109.224 24.7045 110.097 24.4829 111.064 24.4829C112.018 24.4829 112.877 24.7045 113.643 25.1478C114.422 25.591 115.033 26.2088 115.476 27.0012C115.933 27.7802 116.161 28.6867 116.161 29.7209C116.161 30.755 115.933 31.6683 115.476 32.4607C115.033 33.2397 114.422 33.8508 113.643 34.294C112.864 34.7372 111.998 34.9588 111.044 34.9588ZM111.044 32.7226C111.716 32.7226 112.3 32.4741 112.797 31.9772C113.294 31.4668 113.542 30.7147 113.542 29.7209C113.542 28.727 113.294 27.9816 112.797 27.4847C112.3 26.9743 111.722 26.7191 111.064 26.7191C110.379 26.7191 109.788 26.9743 109.291 27.4847C108.808 27.9816 108.566 28.727 108.566 29.7209C108.566 30.7147 108.808 31.4668 109.291 31.9772C109.788 32.4741 110.373 32.7226 111.044 32.7226Z" fill="#695ACD"/>
</svg>
